<svg xmlns="http://www.w3.org/2000/svg" viewBox="0 0 960 360" role="img" aria-hidden="true">
  <defs>
    <filter id="grain">
      <feTurbulence type="fractalNoise" baseFrequency="0.85" numOctaves="2" stitchTiles="stitch"/>
      <feColorMatrix type="saturate" values="0"/>
      <feComponentTransfer><feFuncA type="table" tableValues="0 0.16"/></feComponentTransfer>
      <feBlend mode="overlay" in2="SourceGraphic"/>
    </filter>
  </defs>
  
  <rect width="960" height="360" fill="#151512"/>
  <rect x="92" y="70" width="250" height="188" fill="#24241f" stroke="#514d43"/>
  <rect x="116" y="96" width="202" height="74" fill="#303029"/>
  <rect x="116" y="198" width="156" height="12" fill="#d9c36a" opacity=".75"/>
  <rect x="116" y="224" width="118" height="10" fill="#706a58"/>
  <rect x="392" y="52" width="250" height="188" fill="#24241f" stroke="#514d43"/>
  <rect x="416" y="78" width="202" height="74" fill="#303029"/>
  <rect x="416" y="180" width="156" height="12" fill="#d9c36a" opacity=".75"/>
  <rect x="416" y="206" width="118" height="10" fill="#706a58"/>
  <rect x="692" y="90" width="176" height="220" fill="#24241f" stroke="#514d43"/>
  <path d="M716 130h128M716 166h102M716 202h128M716 238h82" stroke="#d9c36a" stroke-width="8" opacity=".64"/>
  <path d="M250 274h476" stroke="#5b5547" stroke-width="3"/>
  <circle cx="250" cy="274" r="12" fill="#d9c36a"/>
  <circle cx="517" cy="274" r="12" fill="#d9c36a"/>
  <circle cx="780" cy="274" r="12" fill="#d9c36a"/>
  <g filter="url(#grain)"><rect width="960" height="360" fill="transparent"/></g>

</svg>
